Title
2+2 Aka Dos Mas Dos

Country:
Argentina/2012

Language:
Spanish

No Subtitle

Director:
Diego Kaplan

Writers:
Daniel Cúparo, Juan Vera

Stars:
Adrián Suar, Carla Peterson, Julieta Díaz 

Synopsis:
Two couples, friends of a lifetime up to 40 years. Diego (Adrián Suar) and Emilia (Julieta Diaz) have a 14 year old son and a family life organized. Since Richard (Juan Minujín) and Betina (Carla Peterson) have no children and enjoy life differently. During a conversation, the second couple, who is a practitioner of swing, suggests they make a trade partner.

Imdb: 
http://www.imdb.com/title/tt2248944

Trailer: 
http://www.escribiendocine.com/video/dos-mas-dos-trailer


Media Info:

General
Complete name                            : 2.+.2.[Dos.Mas.Dos].2012.DVDRip.XviD.AC3.HORiZON-ArtSubs
Format                                   : AVI
Format/Info                              : Audio Video Interleave
File size                                : 1.37 GiB
Duration                                 : 1h 47mn
Overall bit rate                         : 1 822 Kbps

Video
ID                                       : 0
Format                                   : MPEG-4 Visual
Format profile                           : Advanced Simple@L5
Format settings, BVOP                    : 2
Format settings, QPel                    : No
Format settings, GMC                     : No warppoints
Format settings, Matrix                  : Default (MPEG)
Muxing mode                              : Packed bitstream
Codec ID                                 : XVID
Codec ID/Hint                            : XviD
Duration                                 : 1h 47mn
Bit rate                                 : 1 362 Kbps
Width                                    : 640 pixels
Height                                   : 272 pixels
Display aspect ratio                     : 2.35:1
Frame rate                               : 29.970 fps
Color space                              : YUV
Chroma subsampling                       : 4:2:0
Bit depth                                : 8 bits
Scan type                                : Progressive
Compression mode                         : Lossy
Bits/(Pixel*Frame)                       : 0.261
Stream size                              : 1.02 GiB (75%)
Writing library                          : XviD 64

Audio
ID                                       : 1
Format                                   : AC-3
Format/Info                              : Audio Coding 3
Mode extension                           : CM (complete main)
Format settings, Endianness              : Big
Codec ID                                 : 2000
Duration                                 : 1h 47mn
Bit rate mode                            : Constant
Bit rate                                 : 448 Kbps
Channel(s)                               : 6 channels
Channel positions                        : Front: L C R, Side: L R, LFE
Sampling rate                            : 48.0 KHz
Bit depth                                : 16 bits
Compression mode                         : Lossy
Delay relative to video                  : 5ms
Stream size                              : 344 MiB (25%)
Alignment                                : Split accross interleaves
Interleave, duration                     : 33 ms (1.00 video frame)
Interleave, preload duration             : 500 ms

